<?xml version="1.0" standalone="no"?>
<!DOCTYPE svg PUBLIC "-//W3C//DTD SVG 20010904//EN"
 "http://www.w3.org/TR/2001/REC-SVG-20010904/DTD/svg10.dtd">
<svg version="1.0" xmlns="http://www.w3.org/2000/svg"
 width="500.000000pt" height="500.000000pt" viewBox="0 0 500.000000 500.000000"
 preserveAspectRatio="xMidYMid meet">

<g transform="translate(0.000000,500.000000) scale(0.100000,-0.100000)"
fill="#000000" stroke="none">
<path d="M3305 3890 c-3 -5 -3 -10 1 -10 4 0 -1 -10 -12 -22 -19 -23 -19 -23
2 -5 11 9 21 24 21 32 0 18 -3 19 -12 5z"/>
<path d="M3371 3886 c-1 -19 25 -45 44 -45 6 0 2 4 -8 10 -10 6 -22 20 -27 32
-8 19 -9 20 -9 3z"/>
<path d="M3445 3854 c-20 -16 -20 -16 3 -9 16 5 30 1 45 -12 18 -15 18 -13 -2
10 -14 15 -25 27 -25 27 -1 0 -10 -8 -21 -16z"/>
<path d="M3185 3840 c-10 -11 -14 -20 -9 -20 5 0 15 9 22 20 7 11 11 20 9 20
-2 0 -12 -9 -22 -20z"/>
<path d="M2343 3800 c-33 -13 -42 -39 -44 -124 -2 -76 -14 -106 -42 -106 -7 0
-41 -14 -75 -30 -35 -17 -69 -27 -75 -23 -7 4 -37 28 -67 54 -91 79 -93 78
-216 -42 -57 -57 -107 -113 -110 -125 -7 -29 8 -57 68 -123 30 -33 48 -60 44
-70 -2 -9 -15 -43 -29 -76 -13 -33 -27 -67 -30 -76 -4 -13 -25 -18 -91 -24
-62 -5 -92 -12 -111 -27 -25 -19 -25 -21 -25 -164 0 -141 1 -146 25 -169 18
-19 35 -25 68 -25 24 0 65 -3 90 -6 42 -6 47 -10 58 -43 6 -20 23 -58 36 -84
20 -41 22 -51 11 -65 -7 -9 -34 -43 -60 -75 -27 -32 -48 -67 -48 -79 0 -25
194 -226 226 -234 29 -7 57 8 123 68 30 27 59 47 65 45 69 -28 144 -57 159
-61 13 -4 17 -17 18 -53 1 -80 15 -145 35 -160 13 -9 57 -13 160 -13 181 0
187 3 192 113 4 65 7 76 24 80 11 3 22 15 25 26 3 13 24 29 51 42 38 16 51 18
69 8 12 -6 29 -9 37 -6 9 4 32 -8 57 -29 56 -47 77 -57 102 -50 31 8 215 196
222 227 5 22 -3 37 -47 89 -29 34 -57 68 -62 75 -13 17 43 143 66 151 10 3 22
13 28 23 7 14 27 20 80 25 107 11 110 16 110 181 0 196 -4 202 -159 208 l-63
2 -39 89 c-43 101 -48 79 39 185 23 29 42 62 42 73 0 27 -196 225 -231 233
-20 5 -36 -3 -78 -37 -111 -91 -87 -85 -187 -44 l-89 35 -10 92 c-14 127 -17
129 -189 128 -72 0 -141 -4 -153 -9z m299 -544 c171 -60 274 -198 285 -382 10
-156 -59 -297 -187 -382 -175 -117 -398 -95 -547 54 -80 80 -115 163 -121 284
-3 78 0 105 17 155 81 231 327 351 553 271z m534 -151 c7 -19 14 -37 14 -40 0
-7 -120 -6 -150 2 -22 6 -18 10 45 39 39 18 71 33 73 33 2 1 10 -15 18 -34z
m0 -88 c2 -2 -14 -22 -34 -45 l-37 -43 -70 51 -70 52 104 -6 c58 -4 106 -8
107 -9z m154 -6 l45 -8 -37 -16 c-23 -11 -48 -14 -68 -11 -34 7 -70 -16 -70
-46 0 -13 -56 -50 -76 -50 -3 0 19 31 48 70 58 76 62 77 158 61z m-312 -63
c31 -22 58 -42 60 -43 9 -7 -14 -35 -29 -35 -27 0 -61 -37 -57 -63 1 -12 -5
-32 -13 -45 -15 -21 -16 -16 -15 70 1 51 -2 108 -6 126 -4 17 -5 32 -2 32 3 0
31 -19 62 -42z m402 -83 c0 -63 -1 -115 -3 -115 -2 0 -28 31 -59 69 -68 81
-68 100 1 136 25 13 49 24 54 25 4 0 7 -52 7 -115z m-163 5 c9 0 143 -152 143
-163 0 -9 -123 -7 -135 3 -7 6 -28 12 -48 13 -41 4 -119 62 -115 86 4 22 98
72 123 66 11 -3 25 -5 32 -5z m-131 -146 c28 -22 44 -43 44 -57 0 -15 -32 -55
-95 -117 -52 -52 -95 -88 -95 -80 0 13 29 132 61 253 12 47 29 47 85 1z m-158
-132 c-36 -145 -48 -158 -98 -107 l-32 33 77 101 c43 56 79 100 81 98 2 -1
-11 -58 -28 -125z m178 -69 c-31 -61 -231 -260 -266 -265 -14 -2 -30 -13 -37
-27 -11 -23 -47 -50 -68 -51 -5 0 31 40 79 89 49 50 93 88 96 86 13 -8 50 27
50 48 0 23 162 195 168 178 2 -5 -8 -31 -22 -58z m-291 -73 c24 -25 35 -43 30
-49 -6 -5 -58 -27 -117 -49 -100 -36 -106 -38 -90 -16 35 46 127 153 132 153
3 1 24 -17 45 -39z m341 -65 c26 -31 45 -57 43 -59 -2 -3 -60 -19 -129 -36
-69 -17 -134 -33 -145 -36 -11 -4 23 37 75 90 52 53 98 96 102 96 3 0 28 -25
54 -55z m-532 -7 c-51 -57 -78 -65 -104 -29 l-19 28 57 13 c31 7 64 16 72 21
33 18 31 7 -6 -33z m134 -108 c-78 -85 -111 -100 -135 -60 -25 39 -3 62 98
102 52 20 98 36 102 37 5 1 -25 -35 -65 -79z m-246 2 c2 -31 9 -40 37 -54 70
-35 70 -83 2 -179 -25 -36 -50 -67 -54 -67 -5 -1 -10 79 -12 178 -3 151 -1
179 10 170 8 -6 15 -28 17 -48z m598 -77 c-47 -47 -91 -85 -99 -85 -20 0 -101
68 -101 85 0 9 21 20 53 29 92 26 202 54 217 55 8 1 -23 -37 -70 -84z m-490
-199 c-3 -30 -9 -58 -12 -61 -3 -4 -24 -5 -46 -3 l-41 3 45 63 c25 34 49 60
53 58 4 -3 4 -30 1 -60z"/>
<path d="M3310 3800 c-11 -7 -5 -9 20 -6 19 2 44 -1 55 -6 16 -8 18 -8 8 2
-15 16 -64 22 -83 10z"/>
<path d="M3410 3776 c0 -2 8 -10 18 -17 15 -13 16 -12 3 4 -13 16 -21 21 -21
13z"/>
<path d="M3179 3743 c-13 -16 -12 -17 4 -4 16 13 21 21 13 21 -2 0 -10 -8 -17
-17z"/>
<path d="M3250 3750 c-8 -5 -12 -12 -9 -15 4 -3 12 1 19 10 14 17 11 19 -10 5z"/>
<path d="M3490 3746 c0 -2 7 -7 16 -10 8 -3 12 -2 9 4 -6 10 -25 14 -25 6z"/>
<path d="M3542 3716 c7 -8 15 -12 17 -11 5 6 -10 25 -20 25 -5 0 -4 -6 3 -14z"/>
<path d="M3242 3695 c0 -16 2 -22 5 -12 2 9 2 23 0 30 -3 6 -5 -1 -5 -18z"/>
<path d="M3176 3655 c4 -8 11 -15 16 -15 6 0 5 6 -2 15 -7 8 -14 15 -16 15 -2
0 -1 -7 2 -15z"/>
<path d="M3250 3645 c0 -13 42 -45 66 -51 12 -3 31 -4 41 -1 10 3 5 5 -14 6
-18 1 -45 12 -62 27 -17 14 -31 23 -31 19z"/>
<path d="M3486 3622 c-2 -4 -1 -14 4 -22 7 -11 9 -9 7 8 -1 24 -3 26 -11 14z"/>
<path d="M3195 3610 c3 -5 8 -10 11 -10 2 0 4 5 4 10 0 6 -5 10 -11 10 -5 0
-7 -4 -4 -10z"/>
<path d="M3170 3576 c0 -2 8 -10 18 -17 15 -13 16 -12 3 4 -13 16 -21 21 -21
13z"/>
<path d="M3236 3543 c-6 -14 -5 -15 5 -6 7 7 10 15 7 18 -3 3 -9 -2 -12 -12z"/>
<path d="M3268 3548 c5 -5 16 -8 23 -6 8 3 3 7 -10 11 -17 4 -21 3 -13 -5z"/>
<path d="M3397 3549 c-10 -6 -22 -21 -27 -33 -6 -16 -16 -23 -32 -22 -13 1
-22 7 -20 15 1 7 -2 10 -8 6 -17 -11 10 -36 34 -33 11 2 27 15 34 30 15 32 43
43 74 28 22 -11 22 -10 4 4 -23 19 -34 19 -59 5z"/>
<path d="M1310 3060 c0 -6 7 -10 15 -10 9 0 20 -11 25 -25 12 -32 19 -32 13
-1 -5 23 -53 56 -53 36z"/>
<path d="M1264 3009 c-19 -22 -19 -22 4 -8 12 8 22 17 22 21 0 12 -6 9 -26
-13z"/>
<path d="M1172 3004 c-12 -8 -22 -20 -22 -25 0 -5 10 -1 21 10 17 15 26 18 40
10 11 -5 19 -7 19 -5 0 3 -8 10 -18 15 -14 7 -25 6 -40 -5z"/>
<path d="M1424 3008 c-4 -7 -3 -8 5 -4 6 4 20 2 29 -6 15 -12 16 -11 3 5 -16
20 -27 22 -37 5z"/>
<path d="M1474 2971 c4 -5 1 -12 -4 -14 -6 -3 -5 -4 2 -3 15 3 23 26 8 26 -6
0 -9 -4 -6 -9z"/>
<path d="M1160 2951 c0 -6 4 -13 10 -16 6 -3 7 1 4 9 -7 18 -14 21 -14 7z"/>
<path d="M1350 2946 c0 -2 11 -11 25 -20 14 -9 25 -13 25 -8 0 5 -11 14 -25
20 -14 6 -25 10 -25 8z"/>
<path d="M1239 2923 c-13 -17 -13 -17 6 -3 11 8 22 16 24 17 2 2 0 3 -6 3 -6
0 -17 -8 -24 -17z"/>
<path d="M1455 2931 c-3 -5 -2 -12 3 -15 5 -3 9 1 9 9 0 17 -3 19 -12 6z"/>
<path d="M1110 2875 c-17 -21 -9 -48 20 -62 14 -7 30 -25 37 -40 7 -15 12 -22
13 -15 0 24 -21 53 -46 62 -28 11 -31 32 -8 54 8 9 11 16 6 16 -5 0 -15 -7
-22 -15z"/>
<path d="M1515 2851 c0 -22 3 -37 8 -34 9 6 9 45 -1 60 -5 7 -8 -4 -7 -26z"/>
<path d="M1212 2860 c0 -14 2 -19 5 -12 2 6 2 18 0 25 -3 6 -5 1 -5 -13z"/>
<path d="M1411 2864 c0 -11 3 -14 6 -6 3 7 2 16 -1 19 -3 4 -6 -2 -5 -13z"/>
<path d="M1413 2833 c4 -3 1 -13 -6 -22 -11 -14 -10 -14 6 -2 20 15 22 31 5
31 -6 0 -8 -3 -5 -7z"/>
<path d="M1475 2809 c-11 -16 -1 -19 13 -3 7 8 8 14 3 14 -5 0 -13 -5 -16 -11z"/>
<path d="M1240 2775 c13 -14 26 -25 28 -25 3 0 -5 11 -18 25 -13 14 -26 25
-28 25 -3 0 5 -11 18 -25z"/>
<path d="M1390 2780 c-8 -5 -12 -12 -9 -15 4 -3 12 1 19 10 14 17 11 19 -10 5z"/>
<path d="M1455 2771 c-3 -5 -1 -12 5 -16 5 -3 10 1 10 9 0 18 -6 21 -15 7z"/>
<path d="M1250 2701 c0 -5 7 -11 15 -15 8 -3 15 -1 15 3 0 5 -7 11 -15 15 -8
3 -15 1 -15 -3z"/>
<path d="M1370 2700 c-8 -5 -10 -10 -5 -10 6 0 17 5 25 10 8 5 11 10 5 10 -5
0 -17 -5 -25 -10z"/>
<path d="M1445 2690 c-3 -6 1 -7 9 -4 18 7 21 14 7 14 -6 0 -13 -4 -16 -10z"/>
<path d="M1280 2657 c0 -9 3 -17 8 -18 4 0 17 -2 28 -3 12 -1 26 5 32 15 10
16 9 16 -16 3 -24 -12 -28 -12 -39 3 -12 16 -13 16 -13 0z"/>
<path d="M3210 2170 c0 -5 5 -10 11 -10 5 0 7 5 4 10 -3 6 -8 10 -11 10 -2 0
-4 -4 -4 -10z"/>
<path d="M3289 2163 c-13 -16 -12 -17 4 -4 16 13 21 21 13 21 -2 0 -10 -8 -17
-17z"/>
<path d="M3393 2158 c7 -4 21 -8 32 -8 11 0 25 4 32 8 6 4 -8 7 -32 7 -24 0
-38 -3 -32 -7z"/>
<path d="M3480 2160 c0 -5 5 -10 11 -10 5 0 7 5 4 10 -3 6 -8 10 -11 10 -2 0
-4 -4 -4 -10z"/>
<path d="M3492 2120 c-8 -13 -8 -20 -2 -20 6 0 13 7 17 15 9 24 -1 27 -15 5z"/>
<path d="M3187 2111 c8 -9 9 -21 2 -39 -5 -13 -8 -27 -5 -29 2 -2 8 9 14 26 9
24 7 32 -6 42 -14 11 -15 11 -5 0z"/>
<path d="M3309 2109 c-6 -4 1 -6 15 -6 15 0 28 2 30 6 3 4 -4 7 -15 7 -11 0
-25 -3 -30 -7z"/>
<path d="M3371 2106 c2 -2 15 -9 29 -15 24 -11 24 -11 6 3 -16 13 -49 24 -35
12z"/>
<path d="M3250 2060 c-8 -5 -12 -12 -9 -15 4 -3 12 1 19 10 14 17 11 19 -10 5z"/>
<path d="M3425 2060 c3 -5 8 -10 11 -10 2 0 4 5 4 10 0 6 -5 10 -11 10 -5 0
-7 -4 -4 -10z"/>
<path d="M3139 2033 c-12 -16 -12 -17 2 -6 9 7 19 10 22 6 4 -3 7 -1 7 5 0 17
-16 15 -31 -5z"/>
<path d="M3514 2043 c4 -5 13 -8 19 -8 7 0 12 -12 12 -27 -1 -15 3 -24 7 -22
23 14 -1 64 -31 64 -8 0 -11 -3 -7 -7z"/>
<path d="M3235 2020 c-3 -5 -1 -10 4 -10 6 0 11 5 11 10 0 6 -2 10 -4 10 -3 0
-8 -4 -11 -10z"/>
<path d="M3130 1991 c0 -10 19 -25 25 -20 1 2 -3 10 -11 17 -8 7 -14 8 -14 3z"/>
<path d="M3236 1987 c3 -10 9 -15 12 -12 3 3 0 11 -7 18 -10 9 -11 8 -5 -6z"/>
<path d="M3181 1960 c14 -31 19 -36 19 -24 0 6 -7 19 -16 30 -14 18 -14 18 -3
-6z"/>
<path d="M3506 1972 c-3 -5 1 -9 9 -9 8 0 12 4 9 9 -3 4 -7 8 -9 8 -2 0 -6 -4
-9 -8z"/>
<path d="M3260 1941 c0 -16 55 -41 87 -40 20 1 22 3 8 6 -11 2 -30 6 -42 8
-12 3 -29 12 -37 21 -9 8 -16 11 -16 5z"/>
<path d="M3483 1934 c-3 -9 2 -23 13 -32 17 -16 17 -16 5 0 -7 10 -11 25 -7
33 3 8 3 15 0 15 -2 0 -7 -7 -11 -16z"/>
<path d="M3190 1905 c-6 -8 -10 -19 -8 -24 1 -6 8 1 15 14 13 28 11 31 -7 10z"/>
<path d="M3260 1866 c0 -2 7 -7 16 -10 8 -3 12 -2 9 4 -6 10 -25 14 -25 6z"/>
<path d="M3427 1859 c7 -7 15 -10 18 -7 3 3 -2 9 -12 12 -14 6 -15 5 -6 -5z"/>
<path d="M3230 1850 c-9 -6 -10 -10 -3 -10 6 0 15 5 18 10 8 12 4 12 -15 0z"/>
<path d="M3380 1845 c-7 -9 -8 -15 -2 -15 5 0 12 7 16 15 3 8 4 15 2 15 -2 0
-9 -7 -16 -15z"/>
<path d="M3300 1819 c0 -5 5 -7 10 -4 6 3 10 8 10 11 0 2 -4 4 -10 4 -5 0 -10
-5 -10 -11z"/>
<path d="M3370 1803 c0 -7 -8 -13 -17 -13 -15 0 -16 2 -3 10 13 8 12 10 -2 10
-16 0 -18 -12 -18 -110 l0 -110 100 0 100 0 0 25 c0 24 -3 25 -60 25 -53 0
-60 2 -60 20 0 17 7 20 50 20 47 0 50 2 50 25 0 23 -3 25 -50 25 -38 0 -50 4
-50 15 0 12 13 15 60 15 57 0 60 1 60 24 0 24 -3 25 -80 28 -59 2 -80 0 -80
-9z"/>
<path d="M1480 1700 l0 -110 35 0 c34 0 35 1 35 40 l0 40 40 0 40 0 0 -40 c0
-39 1 -40 35 -40 l35 0 0 110 0 110 -35 0 c-34 0 -35 -1 -35 -40 l0 -40 -40 0
-40 0 0 40 c0 39 -1 40 -35 40 l-35 0 0 -110z"/>
<path d="M1805 1793 c-4 -10 -22 -60 -40 -110 l-34 -93 39 0 c29 0 40 4 40 15
0 11 11 15 40 15 27 0 43 -5 46 -15 6 -15 74 -22 74 -7 0 4 -16 53 -36 110
l-37 102 -42 0 c-32 0 -45 -5 -50 -17z m64 -105 c1 -12 -6 -18 -19 -18 -17 0
-19 4 -14 28 4 15 9 31 12 36 6 11 20 -20 21 -46z"/>
<path d="M2000 1700 l0 -110 35 0 c34 0 35 1 35 40 0 29 4 40 15 40 8 0 24
-18 35 -40 19 -37 24 -40 61 -40 l41 0 -27 46 -27 46 21 14 c14 10 21 26 21
49 0 51 -27 65 -127 65 l-83 0 0 -110z m135 40 c0 -10 -12 -16 -32 -18 -28 -3
-33 0 -33 18 0 18 5 21 33 18 20 -2 32 -8 32 -18z"/>
<path d="M2250 1699 l0 -111 79 3 c67 3 84 8 104 27 50 47 42 148 -13 177 -18
9 -57 15 -100 15 l-70 0 0 -111z m124 55 c11 -4 16 -19 16 -50 0 -38 -4 -46
-26 -56 -29 -14 -42 -2 -38 35 1 12 3 34 3 50 1 27 13 33 45 21z"/>
<path d="M2490 1803 c0 -5 10 -54 22 -110 l23 -103 41 0 42 0 7 46 c13 89 21
94 35 21 l12 -68 41 3 41 3 23 95 c29 123 29 120 -11 120 -31 0 -34 -3 -40
-37 -14 -77 -19 -81 -31 -23 -10 54 -11 55 -47 58 l-37 3 -12 -63 -13 -63 -14
63 c-14 61 -14 62 -48 62 -19 0 -34 -3 -34 -7z"/>
<path d="M2879 1783 c-20 -51 -69 -187 -69 -190 0 -2 16 -3 35 -3 22 0 38 6
41 15 4 10 20 15 44 15 24 0 40 -5 44 -15 7 -19 80 -21 74 -2 -3 6 -20 56 -39
109 l-34 98 -43 0 c-37 0 -44 -3 -53 -27z m61 -55 c0 -7 3 -23 6 -35 5 -19 2
-23 -16 -23 -18 0 -21 4 -16 23 3 12 6 28 6 35 0 6 5 12 10 12 6 0 10 -6 10
-12z"/>
<path d="M3080 1700 l0 -110 35 0 c34 0 35 1 35 40 0 29 4 40 15 40 8 0 24
-18 35 -40 19 -37 24 -40 61 -40 l40 0 -26 46 c-26 46 -26 46 -5 61 13 9 20
25 20 48 0 51 -27 65 -127 65 l-83 0 0 -110z m135 40 c0 -10 -12 -16 -32 -18
-28 -3 -33 0 -33 18 0 18 5 21 33 18 20 -2 32 -8 32 -18z"/>
</g>
</svg>
