<?xml version="1.0" standalone="no"?>
<!DOCTYPE svg PUBLIC "-//W3C//DTD SVG 20010904//EN"
 "http://www.w3.org/TR/2001/REC-SVG-20010904/DTD/svg10.dtd">
<svg version="1.0" xmlns="http://www.w3.org/2000/svg"
 width="500.000000pt" height="500.000000pt" viewBox="0 0 500.000000 500.000000"
 preserveAspectRatio="xMidYMid meet">

<g transform="translate(0.000000,500.000000) scale(0.100000,-0.100000)"
fill="#000000" stroke="none">
<path d="M2390 3766 c-95 -52 -236 -192 -281 -278 -19 -37 -49 -146 -49 -181
0 -31 17 -10 30 38 14 51 35 74 52 57 7 -7 4 -31 -12 -81 -22 -71 -21 -91 5
-91 11 0 12 6 6 23 -13 35 -3 47 39 47 38 0 45 -4 76 -45 14 -19 15 -19 7 5
-13 43 -8 95 12 121 35 44 157 150 196 170 73 37 163 19 201 -39 52 -78 71
-183 43 -232 -14 -25 -14 -25 -15 15 -1 54 -13 30 -34 -66 -15 -70 -47 -133
-85 -169 -94 -89 -226 -200 -238 -200 -8 0 -11 -5 -8 -10 3 -6 -4 -14 -16 -18
-19 -7 -20 -10 -6 -15 14 -5 13 -11 -8 -49 -29 -50 -33 -73 -6 -39 l18 24 5
-60 c11 -112 58 -181 105 -154 15 9 13 10 -13 11 -26 0 -45 15 -44 33 0 1 27
3 61 3 33 1 63 4 66 8 3 3 -5 14 -18 25 -13 11 -18 20 -11 21 6 0 12 10 12 21
0 18 7 14 43 -25 24 -25 50 -46 57 -46 8 0 -2 14 -23 31 -20 17 -37 35 -37 40
0 18 38 9 53 -13 8 -13 18 -20 23 -16 4 5 -1 17 -10 27 -27 29 -31 90 -10 136
9 22 17 43 16 47 -1 3 6 12 16 20 15 12 16 11 3 -4 -16 -21 -11 -22 24 -6 14
6 36 30 49 52 13 23 42 56 65 74 48 39 90 97 138 194 65 132 70 331 10 415
-41 57 -176 172 -216 183 -20 6 -83 13 -141 15 -98 5 -108 4 -150 -19z m110 9
c0 -3 -42 -26 -92 -51 -51 -26 -105 -55 -120 -66 -16 -11 -28 -17 -28 -13 0 8
45 48 92 81 52 36 148 68 148 49z m43 -22 c-7 -2 -19 -2 -25 0 -7 3 -2 5 12 5
14 0 19 -2 13 -5z m137 -8 c38 -19 40 -40 4 -31 -15 4 -39 10 -55 13 -32 6
-38 19 -11 26 29 8 32 7 62 -8z m-191 -29 c-2 -2 -18 -8 -34 -11 -21 -5 -27
-4 -20 3 6 5 19 12 30 14 20 4 32 1 24 -6z m97 -26 c9 0 12 -4 9 -10 -8 -13
-82 -13 -90 -1 -6 10 32 20 53 15 8 -2 20 -4 28 -4z m79 -21 c11 -17 2 -18
-25 -4 -24 14 -24 14 -3 15 12 0 25 -5 28 -11z m-206 -29 c-81 -32 -90 -33
-82 -15 9 24 57 42 95 37 l32 -5 -45 -17z m279 4 c12 -8 22 -22 22 -30 0 -13
-4 -12 -30 1 -16 9 -30 22 -30 30 0 19 10 19 38 -1z m-148 -24 c-8 -5 -35 -9
-60 -9 -34 0 -40 2 -25 9 29 13 104 13 85 0z m-392 -71 c-29 -33 -61 -72 -70
-87 -24 -36 -23 -21 1 26 17 34 102 122 117 122 3 0 -18 -27 -48 -61z m152 52
c0 -9 -102 -71 -116 -71 -12 0 21 33 56 56 37 24 60 30 60 15z m480 -31 c0 -5
-4 -10 -9 -10 -6 0 -13 5 -16 10 -3 6 1 10 9 10 9 0 16 -4 16 -10z m-395 -10
c-3 -5 -14 -10 -23 -9 -14 0 -13 2 3 9 27 11 27 11 20 0z m258 3 c-7 -2 -19
-2 -25 0 -7 3 -2 5 12 5 14 0 19 -2 13 -5z m-507 -85 c-9 -12 -16 -19 -16 -15
0 11 24 47 28 42 2 -2 -3 -14 -12 -27z m601 17 c8 -22 -6 -33 -17 -15 -13 20
-12 30 0 30 6 0 13 -7 17 -15z m53 5 c0 -5 -2 -10 -4 -10 -3 0 -8 5 -11 10 -3
6 -1 10 4 10 6 0 11 -4 11 -10z m-545 -44 c-51 -45 -73 -53 -39 -15 18 21 73
59 84 59 3 0 -17 -20 -45 -44z m445 -14 c0 -7 -4 -10 -10 -7 -5 3 -10 16 -10
28 0 18 2 19 10 7 5 -8 10 -21 10 -28z m160 -13 c0 -11 -4 -17 -10 -14 -5 3
-10 15 -10 26 0 11 5 17 10 14 6 -3 10 -15 10 -26z m-120 -15 c0 -8 -4 -12
-10 -9 -5 3 -10 13 -10 21 0 8 5 12 10 9 6 -3 10 -13 10 -21z m-533 -59 c-9
-29 -12 -33 -20 -20 -6 11 -3 22 9 36 23 26 24 25 11 -16z m633 -9 c0 -3 -4
-8 -10 -11 -5 -3 -10 -1 -10 4 0 6 5 11 10 11 6 0 10 -2 10 -4z m-25 -94 c-6
-30 -50 -80 -60 -70 -3 3 6 31 22 62 28 58 50 63 38 8z m-7 -79 c-19 -44 -66
-110 -83 -116 -18 -8 -18 -9 -4 34 11 33 75 109 91 109 4 0 2 -12 -4 -27z
m-158 -32 c0 -5 -9 -19 -21 -32 l-20 -24 17 33 c19 33 24 38 24 23z m-15 -201
c-7 -11 -45 -33 -45 -26 0 2 7 12 16 20 17 18 39 22 29 6z m-230 -65 c-16 -13
-32 -22 -35 -19 -3 3 8 16 25 29 16 13 32 22 35 19 3 -3 -8 -16 -25 -29z m42
-42 c-9 -9 -20 -13 -24 -9 -4 4 1 14 11 22 25 18 35 8 13 -13z m-87 -42 c-11
-21 -30 -37 -30 -25 0 8 30 44 37 44 2 0 -1 -9 -7 -19z m55 -38 c-20 -47 -21
-48 -28 -24 -5 21 17 61 34 61 5 0 2 -17 -6 -37z m-37 -70 c10 -55 6 -61 -27
-43 -18 9 -19 22 -5 89 7 35 21 15 32 -46z m73 36 c-5 -13 -10 -19 -10 -12 -1
15 10 45 15 40 3 -2 0 -15 -5 -28z m-72 -105 c17 -4 31 -10 31 -15 0 -14 -44
-10 -66 6 -21 16 -12 18 35 9z"/>
<path d="M2448 2353 c-55 -9 -135 -122 -119 -166 13 -34 78 -61 144 -62 57 0
61 1 97 43 45 50 72 104 64 126 -3 8 -30 24 -60 35 -65 25 -91 30 -126 24z
m-8 -48 c-32 -18 -41 -18 -34 0 4 8 18 15 33 15 l26 -1 -25 -14z m175 -28 c0
-24 -18 -23 -27 3 -6 17 -4 21 10 18 9 -2 17 -11 17 -21z m-86 -11 c18 -19 8
-43 -23 -58 -20 -9 -30 -8 -51 6 -27 18 -35 60 -12 70 19 8 70 -3 86 -18z
m-92 -84 c-21 -4 -47 15 -47 35 0 11 8 9 32 -9 27 -18 29 -23 15 -26z m-57
-17 c0 -5 -10 0 -21 12 -13 12 -18 26 -14 33 6 9 12 6 21 -11 7 -13 13 -28 14
-34z m160 -4 c0 -10 -25 -21 -48 -21 -12 1 -10 5 8 15 29 17 40 18 40 6z"/>
<path d="M1937 1963 c-4 -3 -7 -16 -7 -29 0 -19 -5 -22 -35 -21 -47 1 -75 -26
-75 -74 0 -52 34 -78 100 -77 l48 1 1 104 c1 81 -2 103 -12 103 -8 0 -17 -3
-20 -7z m-13 -105 c23 -37 -35 -78 -60 -43 -20 27 3 68 35 62 8 -1 19 -10 25
-19z"/>
<path d="M2338 1947 c-6 -30 1 -47 18 -47 9 0 14 11 14 35 0 40 -25 49 -32 12z"/>
<path d="M1615 1952 c-11 -12 -4 -30 15 -35 17 -4 20 -14 20 -60 0 -46 -3 -55
-20 -60 -11 -3 -20 -12 -20 -21 0 -13 11 -16 55 -16 48 0 55 2 55 20 0 11 -7
20 -15 20 -12 0 -15 13 -15 60 0 47 3 60 15 60 15 0 22 29 8 31 -24 5 -93 5
-98 1z"/>
<path d="M2424 1943 c-3 -12 -15 -25 -25 -28 -25 -8 -24 -22 1 -35 15 -8 20
-21 20 -49 0 -42 23 -71 58 -71 15 0 22 6 22 20 0 13 -7 20 -20 20 -17 0 -20
7 -20 40 0 33 3 40 20 40 25 0 27 28 3 37 -10 4 -26 16 -35 28 l-18 20 -6 -22z"/>
<path d="M2602 1858 c2 -57 7 -93 14 -95 7 -2 27 12 46 33 l35 36 39 -36 c42
-39 49 -42 60 -25 3 6 -11 28 -31 49 l-38 39 37 36 c35 33 40 55 13 55 -6 0
-40 -28 -74 -62 l-63 -62 0 62 c0 56 -2 62 -20 62 -20 0 -21 -5 -18 -92z"/>
<path d="M2035 1908 c-51 -30 -60 -84 -20 -123 30 -31 66 -32 101 -2 49 43 29
117 -36 131 -14 3 -34 1 -45 -6z m59 -44 c19 -18 19 -20 6 -45 -6 -10 -19 -19
-28 -19 -39 0 -57 50 -24 69 23 14 28 14 46 -5z"/>
<path d="M2165 1906 c-2 -6 -2 -40 -2 -76 2 -50 5 -65 17 -65 10 0 17 14 21
48 4 41 19 67 39 67 20 0 35 -26 39 -67 4 -34 11 -48 21 -48 11 0 16 13 18 46
4 68 -25 100 -97 103 -32 2 -54 -1 -56 -8z"/>
<path d="M2817 1912 c-2 -6 -1 -111 2 -139 0 -7 8 -13 16 -13 11 0 15 12 15
44 0 45 18 76 44 76 22 0 34 -23 38 -70 2 -32 7 -45 18 -45 11 0 16 13 18 44
4 48 -11 86 -37 97 -22 9 -110 14 -114 6z"/>
<path d="M3009 1890 c-32 -31 -35 -50 -17 -83 37 -70 129 -58 144 19 4 24 0
37 -18 59 -34 39 -74 41 -109 5z m75 -23 c36 -26 -4 -84 -41 -61 -24 15 -27
38 -8 58 20 19 26 20 49 3z"/>
<path d="M3163 1913 c-8 -3 -13 -24 -13 -54 0 -40 5 -55 25 -74 25 -26 63 -33
81 -15 8 8 19 7 37 -1 53 -24 97 19 97 95 0 33 -20 62 -33 49 -4 -3 -7 -25 -7
-47 0 -50 -11 -69 -36 -64 -15 2 -20 15 -24 58 -3 30 -8 54 -12 53 -5 -2 -12
-3 -17 -3 -6 0 -11 -24 -13 -52 -3 -49 -5 -53 -28 -53 -23 0 -25 4 -28 50 -3
53 -9 65 -29 58z"/>
</g>
</svg>
