<?xml version="1.0" standalone="no"?>
<!DOCTYPE svg PUBLIC "-//W3C//DTD SVG 20010904//EN"
 "http://www.w3.org/TR/2001/REC-SVG-20010904/DTD/svg10.dtd">
<svg version="1.0" xmlns="http://www.w3.org/2000/svg"
 width="500.000000pt" height="500.000000pt" viewBox="0 0 500.000000 500.000000"
 preserveAspectRatio="xMidYMid meet">

<g transform="translate(0.000000,500.000000) scale(0.100000,-0.100000)"
fill="#000000" stroke="none">
<path d="M876 3300 c-35 -11 -63 -36 -84 -75 -14 -25 -16 -66 -17 -235 0 -194
-1 -207 -23 -247 -27 -53 -84 -91 -137 -95 -33 -3 -41 -7 -43 -26 -3 -19 1
-22 30 -22 53 0 121 -49 149 -106 23 -47 24 -59 25 -254 1 -230 7 -255 68
-284 41 -19 186 -22 204 -4 23 23 11 28 -78 28 -84 0 -92 2 -120 28 -42 37
-50 80 -40 228 9 132 2 217 -22 274 -19 45 -63 97 -89 105 -18 6 -16 10 22 48
77 77 84 103 84 334 1 222 6 244 58 263 16 5 65 10 108 10 72 0 79 2 79 20 0
18 -6 20 -72 19 -40 0 -86 -5 -102 -9z"/>
<path d="M3946 3302 c-13 -21 16 -30 101 -33 84 -4 95 -6 119 -31 l27 -26 1
-209 c1 -237 9 -268 84 -339 l39 -38 -37 -27 c-77 -56 -104 -159 -92 -353 11
-160 4 -201 -37 -238 -29 -26 -37 -28 -121 -28 -90 0 -97 -3 -81 -29 13 -21
187 -11 222 12 50 33 55 64 50 317 -3 144 6 190 50 251 25 36 87 69 129 69 27
0 31 3 28 23 -2 18 -11 23 -48 27 -57 7 -104 40 -133 93 -21 40 -22 54 -22
247 0 186 -2 208 -20 239 -36 62 -66 76 -165 78 -49 2 -91 -1 -94 -5z"/>
<path d="M1899 2893 c-80 -91 -113 -204 -90 -314 15 -73 43 -124 99 -181 l46
-48 23 22 23 21 -36 40 c-58 63 -78 119 -78 212 0 92 20 147 79 219 l35 43
-24 17 c-14 9 -27 16 -30 16 -2 0 -23 -21 -47 -47z"/>
<path d="M2360 2645 l0 -205 40 0 40 0 0 90 0 90 60 0 60 0 0 -90 0 -90 40 0
40 0 0 205 0 205 -40 0 -40 0 0 -80 0 -80 -60 0 -60 0 0 80 0 80 -40 0 -40 0
0 -205z"/>
<path d="M2680 2645 l0 -205 125 0 125 0 0 30 0 30 -85 0 -85 0 0 60 0 60 70
0 70 0 0 30 0 30 -70 0 -70 0 0 55 0 54 83 3 c81 3 82 3 85 31 l3 27 -125 0
-126 0 0 -205z"/>
<path d="M2970 2645 l0 -206 128 3 127 3 3 33 3 32 -90 0 -91 0 0 170 0 170
-40 0 -40 0 0 -205z"/>
<path d="M3250 2645 l0 -205 40 0 40 0 0 69 0 68 62 6 c71 6 105 27 131 80 24
48 15 110 -20 143 -34 32 -83 44 -175 44 l-78 0 0 -205z m187 119 c14 -19 17
-72 5 -90 -12 -19 -49 -34 -81 -34 l-31 0 0 76 0 77 47 -6 c29 -3 52 -12 60
-23z"/>
<path d="M1576 2729 c-16 -23 -7 -66 17 -81 35 -22 87 7 87 49 0 48 -76 72
-104 32z"/>
<path d="M1599 2536 c-47 -23 -30 -106 22 -106 24 0 59 34 59 58 0 42 -43 67
-81 48z"/>
<path d="M2268 1859 c-10 -5 -20 -25 -24 -44 -4 -25 -11 -35 -25 -35 -12 0
-19 -7 -19 -20 0 -13 7 -20 20 -20 18 0 20 -7 20 -75 0 -73 1 -75 25 -75 24 0
25 2 25 75 l0 75 29 0 c16 0 31 6 34 14 8 19 -1 26 -35 26 -21 0 -28 5 -28 19
0 26 23 43 56 39 20 -2 29 2 32 15 3 14 -4 17 -45 17 -26 0 -56 -5 -65 -11z"/>
<path d="M1860 1842 c-28 -14 -36 -24 -38 -50 -4 -41 17 -67 67 -83 46 -15 61
-27 61 -50 0 -34 -70 -45 -106 -17 -16 12 -41 -19 -27 -33 34 -34 147 -27 172
11 14 20 14 20 37 -5 34 -37 95 -37 133 0 36 35 35 115 -1 151 -47 48 -127 31
-149 -30 -10 -28 -15 -32 -23 -21 -6 8 -33 22 -61 32 -58 21 -70 47 -31 64 20
10 32 9 53 0 21 -10 29 -9 41 3 13 12 12 15 -4 24 -40 20 -88 22 -124 4z m259
-96 c19 -22 10 -107 -12 -120 -15 -9 -22 -7 -38 13 -23 28 -25 69 -3 99 17 25
36 28 53 8z"/>
<path d="M2433 1833 c-7 -2 -13 -13 -13 -24 0 -12 -7 -19 -20 -19 -13 0 -20
-7 -20 -20 0 -13 7 -20 20 -20 18 0 20 -7 20 -58 0 -81 18 -104 78 -100 34 2
47 7 47 18 0 9 -10 15 -26 16 -42 2 -49 12 -49 70 0 53 0 54 30 54 20 0 30 5
30 15 0 8 4 15 9 15 5 0 14 -43 21 -95 13 -95 13 -95 41 -95 22 0 30 6 33 23
3 12 9 40 14 62 l9 40 7 -62 c8 -61 9 -63 36 -63 20 0 31 6 35 20 6 20 7 20
23 0 19 -23 67 -29 97 -13 13 8 24 8 36 0 10 -6 21 -8 25 -4 10 10 6 103 -7
150 -8 31 -15 39 -42 44 -18 4 -36 6 -41 5 -5 -2 -31 -3 -57 -4 -52 0 -58 -9
-59 -78 0 -19 -5 -42 -10 -50 -8 -12 -10 -9 -10 11 0 60 -12 89 -35 89 -19 0
-24 -8 -36 -62 -7 -35 -14 -54 -15 -43 -2 11 -6 46 -9 78 l-6 57 -60 0 c-56 0
-59 1 -59 25 0 24 -11 29 -37 18z m427 -93 c13 -21 3 -30 -33 -30 -18 0 -43
-7 -55 -16 -21 -14 -22 -14 -22 10 0 13 2 30 5 38 7 19 93 18 105 -2z m10 -80
c0 -22 -34 -44 -56 -36 -14 6 -19 37 -7 49 3 4 19 7 35 7 21 0 28 -5 28 -20z"/>
<path d="M2945 1780 c-8 -13 4 -32 16 -25 5 4 9 -23 9 -64 0 -56 -3 -71 -15
-71 -8 0 -15 -7 -15 -15 0 -12 13 -15 60 -15 45 0 60 3 60 14 0 8 -9 18 -20
21 -27 9 -27 64 1 99 24 31 39 33 39 6 0 -27 26 -25 34 3 13 47 8 57 -28 57
-24 0 -39 -7 -49 -21 l-15 -21 -7 21 c-4 15 -15 21 -35 21 -16 0 -32 -4 -35
-10z"/>
<path d="M3146 1759 c-48 -57 -27 -150 39 -168 46 -12 109 4 101 26 -3 8 -6
16 -6 18 0 2 -16 -2 -36 -8 -33 -10 -38 -9 -55 12 -11 13 -17 26 -14 29 2 3
31 5 62 6 57 1 58 1 61 32 2 19 -5 40 -18 57 -17 22 -30 27 -65 27 -36 0 -48
-5 -69 -31z m92 -11 c24 -24 13 -38 -28 -38 -43 0 -45 2 -30 31 12 21 40 25
58 7z"/>
</g>
</svg>
