<?xml version="1.0" standalone="no"?>
<!DOCTYPE svg PUBLIC "-//W3C//DTD SVG 20010904//EN"
 "http://www.w3.org/TR/2001/REC-SVG-20010904/DTD/svg10.dtd">
<svg version="1.0" xmlns="http://www.w3.org/2000/svg"
 width="1000.000000pt" height="1000.000000pt" viewBox="0 0 1000.000000 1000.000000"
 preserveAspectRatio="xMidYMid meet">

<g transform="translate(0.000000,1000.000000) scale(0.100000,-0.100000)"
fill="green" stroke="none">
<path d="M4835 9799 c-418 -25 -893 -119 -1270 -250 -464 -162 -939 -417
-1306 -701 -45 -35 -93 -72 -108 -83 -59 -44 -214 -186 -345 -314 -439 -432
-755 -891 -1015 -1476 -182 -412 -318 -946 -366 -1444 -17 -178 -20 -606 -5
-786 23 -269 90 -644 156 -872 24 -84 44 -158 44 -164 0 -20 111 -313 172
-454 76 -173 151 -326 230 -462 54 -94 59 -107 49 -131 -6 -15 -20 -56 -30
-92 -11 -36 -105 -319 -211 -630 -106 -311 -200 -592 -210 -625 -11 -33 -100
-301 -199 -595 -99 -294 -179 -536 -177 -537 1 -2 58 15 127 37 353 114 492
159 794 255 182 58 409 131 505 162 96 30 234 74 305 98 72 23 227 73 345 110
118 37 279 89 357 116 l142 48 188 -93 c333 -166 642 -278 1008 -365 258 -61
285 -66 510 -91 412 -46 734 -46 1143 0 839 93 1681 448 2362 995 626 503
1091 1127 1415 1900 237 566 370 1343 335 1966 -10 191 -30 377 -65 614 -21
139 -114 500 -178 690 -187 552 -476 1061 -872 1535 -103 123 -402 422 -530
529 -465 387 -931 654 -1485 851 -564 201 -1225 295 -1815 259z m570 -779
c406 -37 819 -136 1177 -283 712 -292 1347 -813 1770 -1452 120 -182 157 -247
252 -439 207 -418 317 -791 388 -1326 20 -150 17 -693 -5 -850 -81 -575 -215
-996 -459 -1438 -187 -338 -390 -606 -677 -893 -162 -161 -225 -216 -400 -349
-140 -107 -452 -310 -475 -310 -4 0 -38 -18 -74 -39 -61 -35 -137 -71 -307
-144 -137 -59 -311 -118 -490 -165 -221 -59 -252 -65 -445 -92 -411 -55 -707
-55 -1125 1 -207 27 -345 58 -605 135 -259 77 -609 237 -880 402 l-105 64
-105 -32 c-58 -18 -163 -51 -235 -75 -71 -24 -296 -96 -500 -160 -203 -65
-428 -137 -498 -161 -110 -38 -167 -52 -167 -41 0 1 81 243 181 537 99 294
190 569 203 610 13 41 42 126 64 187 l41 113 -42 57 c-40 54 -102 153 -190
298 -34 58 -187 360 -187 370 0 3 -20 51 -44 108 -35 83 -111 308 -156 462
-24 80 -91 445 -104 560 -35 305 -29 713 14 985 137 885 514 1630 1135 2244
656 650 1513 1039 2460 1119 95 8 489 6 590 -3z"/>
<path d="M3463 7399 c-108 -18 -158 -45 -260 -142 -243 -232 -375 -472 -427
-776 -20 -120 -21 -350 -1 -463 23 -134 92 -359 145 -478 28 -60 50 -112 50
-115 0 -26 270 -466 421 -685 264 -383 615 -778 914 -1031 300 -252 605 -447
895 -569 260 -110 398 -167 480 -197 52 -19 136 -49 185 -68 50 -18 149 -48
220 -66 197 -51 358 -47 628 12 169 37 420 177 567 315 109 104 159 197 205
383 50 205 57 350 19 392 -30 34 -122 88 -399 234 -33 18 -136 73 -230 122
-257 137 -386 200 -435 213 -96 26 -155 9 -206 -57 -107 -141 -398 -465 -448
-499 -75 -51 -123 -41 -362 79 -422 211 -771 489 -1043 827 -162 202 -318 434
-400 597 -40 81 -22 179 43 230 60 48 256 278 301 354 41 71 50 94 53 145 4
52 -1 72 -33 150 -20 49 -54 136 -75 194 -21 58 -63 173 -93 255 -30 83 -77
211 -105 286 -57 156 -92 237 -122 280 -37 50 -70 60 -234 70 -83 5 -162 10
-176 12 -14 2 -48 0 -77 -4z"/>
</g>
</svg>
